<?xml version="1.0" encoding="UTF-8" standalone="no"?>
<svg
   xmlns:dc="http://purl.org/dc/elements/1.1/"
   xmlns:cc="http://creativecommons.org/ns#"
   xmlns:rdf="http://www.w3.org/1999/02/22-rdf-syntax-ns#"
   xmlns:svg="http://www.w3.org/2000/svg"
   xmlns="http://www.w3.org/2000/svg"
   xmlns:sodipodi="http://sodipodi.sourceforge.net/DTD/sodipodi-0.dtd"
   xmlns:inkscape="http://www.inkscape.org/namespaces/inkscape"
   version="1.1"
   id="Layer_1"
   x="0px"
   y="0px"
   viewBox="0 0 150.00001 149.99999"
   enable-background="new 0 0 196.6 72"
   xml:space="preserve"
   inkscape:version="0.92.4 (5da689c313, 2019-01-14)"
   sodipodi:docname="nafairXcloud-w10startmenu.svg"
   width="160"
   height="160"
   inkscape:export-filename="nextcloud-icon-1024.png"
   inkscape:export-xdpi="612.79999"
   inkscape:export-ydpi="612.79999">
    <metadata
   id="metadata20">
        <rdf:RDF>
            <cc:Work
   rdf:about="">
                <dc:format>image/svg+xml</dc:format>
                <dc:type
   rdf:resource="http://purl.org/dc/dcmitype/StillImage" />
                <dc:title></dc:title>
            </cc:Work>
        </rdf:RDF>
    </metadata>
    <defs
   id="defs18">
        
        <clipPath
   clipPathUnits="userSpaceOnUse"
   id="clipPath8812">
            <circle
   id="circle8814"
   cx="95.669289"
   cy="95.669296"
   r="79.724197"
   style="fill:#00080d;fill-opacity:1;stroke-width:1" />
        </clipPath>
        
    <clipPath
   clipPathUnits="userSpaceOnUse"
   id="clipPath18"><path
     d="M 0,97.405 H 82.64 V 0 H 0 Z"
     id="path16"
     inkscape:connector-curvature="0" /></clipPath></defs>
    <sodipodi:namedview
   pagecolor="#ffffff"
   bordercolor="#666666"
   borderopacity="1"
   objecttolerance="10"
   gridtolerance="10"
   guidetolerance="10"
   inkscape:pageopacity="0"
   inkscape:pageshadow="2"
   inkscape:window-width="1920"
   inkscape:window-height="1001"
   id="namedview16"
   showgrid="false"
   inkscape:zoom="2.8284271"
   inkscape:cx="85.891657"
   inkscape:cy="78.693608"
   inkscape:current-layer="Layer_1"
   fit-margin-top="0"
   fit-margin-left="0"
   fit-margin-right="0"
   fit-margin-bottom="0"
   inkscape:window-x="-9"
   inkscape:window-y="-9"
   inkscape:window-maximized="1"
   units="px"
   inkscape:snap-bbox="true"
   inkscape:bbox-paths="true"
   inkscape:bbox-nodes="true"
   inkscape:snap-bbox-edge-midpoints="true"
   inkscape:snap-bbox-midpoints="true"
   inkscape:snap-page="true"
   inkscape:document-rotation="0" />
    
    
<g
   transform="matrix(1.25,0,0,-1.25,23.18372,134.97727)"
   id="g12"><g
     id="g14"
     clip-path="url(#clipPath18)"><g
       id="g20"
       transform="translate(75.4694,93.3153)"><path
         d="M 0,0 -15.032,-13.632 H -52.24 c -0.177,0.027 -1.766,0.245 -2.977,-0.809 -0.971,-0.846 -1.034,-1.93 -1.041,-2.16 v -46.563 c -1.588,0.019 -4.124,-0.165 -6.785,-1.383 -6.325,-2.895 -7.876,-9.123 -8.099,-10.089 v 64.783 c 0.107,1.046 0.517,3.483 2.531,5.804 2.768,3.191 6.604,3.896 7.59,4.049 z"
         style="fill:#3e78bc;fill-opacity:1;fill-rule:nonzero;stroke:none"
         id="path22"
         inkscape:connector-curvature="0" /></g><g
       id="g24"
       transform="translate(78.446,90.8859)"><path
         d="m 0,0 -15.032,-13.767 v -56.955 c 0.014,-0.136 0.137,-1.568 -1.042,-2.43 -0.564,-0.412 -1.177,-0.511 -1.488,-0.539 h -26.046 c -0.033,-1.244 -0.318,-5.453 -3.871,-9.177 -4.438,-4.651 -10.554,-4.958 -11.607,-4.995 -0.085,-0.003 -0.126,-0.006 -0.126,-0.009 0,-0.218 36.568,-0.705 50.282,0.009 1.141,0.06 3.747,0.227 5.826,1.878 2.953,2.346 3.076,6.283 3.104,7.975 0.109,6.686 0.234,36.771 0,78.01"
         style="fill:#76ee00;fill-opacity:1;fill-rule:nonzero;stroke:none"
         id="path26"
         inkscape:connector-curvature="0" /></g><g
       id="g28"
       transform="translate(30.6338,16.6546)"><path
         d="m 0,0 c 0,5.628 -5.031,10.19 -11.237,10.19 -6.206,0 -11.237,-4.562 -11.237,-10.19 0,-5.628 5.031,-10.19 11.237,-10.19 C -5.031,-10.19 0,-5.628 0,0"
         style="fill:#6b6565;fill-opacity:1;fill-rule:nonzero;stroke:none"
         id="path30"
         inkscape:connector-curvature="0" /></g></g></g></svg>