<?xml version="1.0" encoding="UTF-8" standalone="no"?>
<svg
   xmlns:dc="http://purl.org/dc/elements/1.1/"
   xmlns:cc="http://creativecommons.org/ns#"
   xmlns:rdf="http://www.w3.org/1999/02/22-rdf-syntax-ns#"
   xmlns:svg="http://www.w3.org/2000/svg"
   xmlns="http://www.w3.org/2000/svg"
   xmlns:sodipodi="http://sodipodi.sourceforge.net/DTD/sodipodi-0.dtd"
   xmlns:inkscape="http://www.inkscape.org/namespaces/inkscape"
   height="16"
   width="16"
   version="1.1"
   viewBox="0 0 16 16"
   id="svg4"
   sodipodi:docname="wizard-talk.svg"
   inkscape:version="0.92.4 (5da689c313, 2019-01-14)">
  <metadata
     id="metadata10">
    <rdf:RDF>
      <cc:Work
         rdf:about="">
        <dc:format>image/svg+xml</dc:format>
        <dc:type
           rdf:resource="http://purl.org/dc/dcmitype/StillImage" />
        <dc:title></dc:title>
      </cc:Work>
    </rdf:RDF>
  </metadata>
  <defs
     id="defs8">
    <clipPath
       clipPathUnits="userSpaceOnUse"
       id="clipPath18">
      <path
         d="M 0,97.405 H 82.64 V 0 H 0 Z"
         id="path16"
         inkscape:connector-curvature="0" />
    </clipPath>
  </defs>
  <sodipodi:namedview
     pagecolor="#ffffff"
     bordercolor="#666666"
     borderopacity="1"
     objecttolerance="10"
     gridtolerance="10"
     guidetolerance="10"
     inkscape:pageopacity="0"
     inkscape:pageshadow="2"
     inkscape:window-width="1920"
     inkscape:window-height="1001"
     id="namedview6"
     showgrid="false"
     inkscape:zoom="7.375"
     inkscape:cx="28.283868"
     inkscape:cy="18.356401"
     inkscape:window-x="-9"
     inkscape:window-y="-9"
     inkscape:window-maximized="1"
     inkscape:current-layer="svg4"
     inkscape:pagecheckerboard="true"
     units="in" />
  <g
     id="g1451"
     transform="matrix(2.6597663,0,0,2.6597651,-20.038993,-745.89431)">
    <g
       inkscape:export-ydpi="612.79999"
       inkscape:export-xdpi="612.79999"
       transform="matrix(0.01628205,0,0,0.01628205,5.3417052,308.26101)"
       id="g940">
      <path
         sodipodi:nodetypes="scscsszssccscsccscscscccsscscssssscss"
         inkscape:connector-curvature="0"
         id="path865"
         d="m 433.43374,-1379.9015 c -48.19008,-40.6556 -56.94668,-47.9813 -59.27351,-49.5878 -2.25296,-1.5554 -7.0921,-1.708 -54.5,-1.7178 -55.20534,-0.011 -55.86792,-0.061 -65.3682,-4.9079 -7.33628,-3.7427 -19.15929,-16.2569 -19.15929,-20.3666 0,-1.1736 12.51124,-8.0484 13.99278,-8.0484 0.24532,0 1.08052,1.7764 3.56409,4.8376 2.48357,3.0612 4.51227,5.658 6.54774,7.0686 7.68802,5.3278 8.90704,5.4275 66.36004,5.4275 h 53.14679 l 3.02638,2.25 c 1.6645,1.2375 13.94353,11.475 27.28673,22.75 13.3432,11.275 25.11875,20.6438 26.1679,20.8195 2.86952,0.4807 2.49713,-1.5489 -3.68997,-20.1121 -3.67266,-11.0191 -5.38788,-17.6294 -4.98789,-19.2231 1.08326,-4.3161 4.4313,-6.4837 10.02397,-6.4899 10.95716,-0.012 19.96757,-5.0605 24.9773,-13.9944 l 3.08414,-5.5 0.28137,-72.8862 c 0.31863,-82.5383 0.51709,-80.0624 -7.08166,-88.3456 -5.94967,-6.4855 -10.87882,-8.3907 -23.35541,-9.0275 l -12.3443,-0.5279 v -7.9771 -7.9771 l 14.25,0.4701 c 14.43373,0.4763 20.27767,2.407 28.8239,9.1357 6.86881,5.4079 11.39749,12.0848 13.99334,20.6311 1.91224,6.2956 1.97167,9.203 1.70699,83.5136 l -0.27423,76.9909 -3.18498,6.7233 c -4.40025,9.2887 -10.99031,16.0407 -19.72449,20.209 -3.89979,1.8611 -7.87803,3.6361 -8.84053,3.9444 -0.9625,0.3083 -1.75,1.5155 -1.75,2.6827 0,1.1671 4.09931,14.694 9.10957,30.0597 8.35971,25.638 9.00694,28.1854 7.86285,30.9475 -1.46349,3.5331 -3.69316,4.9334 -7.85568,4.9334 -2.44247,0 -6.7735,-3.1711 -22.81574,-16.7052 z"
         style="fill:#75ec01;fill-opacity:1" />
      <path
         inkscape:connector-curvature="0"
         id="path857"
         d="m 188.58984,-1685.1973 a 2.50025,2.50025 0 0 0 -1.10351,0.2578 l -6.58399,3.2403 c -8.49025,4.1797 -15.8446,11.6694 -19.85351,20.2226 l -2.67969,5.7188 a 2.50025,2.50025 0 0 0 -0.23633,1.0508 l -0.27734,68.9121 c -0.25043,62.3597 -0.21354,69.5089 1.5332,74.7929 4.51869,13.6695 15.7382,24.4317 28.83789,27.3633 1.35876,0.3041 2.73281,0.7215 3.76172,1.1172 0.33979,0.1307 0.55691,0.2416 0.80078,0.3555 -0.13273,0.7911 -0.44855,2.09 -0.98242,3.8867 -1.08276,3.6439 -3.0192,9.2951 -5.95703,17.4258 -2.22769,6.1653 -4.2519,12.0794 -5.72656,16.6699 -0.73732,2.2952 -1.33772,4.2573 -1.76172,5.7754 -0.21201,0.7591 -0.37898,1.4047 -0.50195,1.9512 -0.12298,0.5465 -0.22657,0.8793 -0.22657,1.5644 0,2.6743 1.27804,5.0984 3.1875,7.0078 1.29062,1.2907 2.66449,2.4826 4.5586,3.0059 1.89411,0.5233 3.96662,0.2111 6.21093,-0.6875 4.48641,-1.7963 10.48709,-5.9327 21.46875,-13.6621 l 0.0137,-0.01 c 18.57026,-12.9009 40.58752,-27.8044 61.11914,-42.9668 l 59.33593,-0.4942 60.12696,-0.5 a 2.50025,2.50025 0 0 0 1.03906,-0.2363 l 5.73633,-2.6875 c 8.02929,-3.7631 16.01623,-11.75 19.77929,-19.7793 l 2.6875,-5.7363 a 2.50025,2.50025 0 0 0 0.23633,-1.0293 l 0.75781,-62 c 0.41642,-34.0969 0.86675,-65.3456 0.98438,-68.9492 0.11654,-3.5706 0.1172,-5.943 -0.69727,-8.7793 -0.81446,-2.8363 -2.30772,-5.9349 -5.07812,-11.6328 -3.40889,-7.0112 -10.94958,-13.9961 -18.88477,-17.8047 l -6.5,-3.1192 a 2.50025,2.50025 0 0 0 -1.08203,-0.2461 h -102.0215 z"
         style="fill:#3c77bb;stroke:none;stroke-width:5;stroke-linecap:butt;stroke-linejoin:round;stroke-miterlimit:4;stroke-dasharray:none;stroke-opacity:1;paint-order:normal" />
      <g
         id="g916"
         transform="translate(-254.86726,-1844.1963)"
         style="fill:#6b6b6b;fill-opacity:1">
        <path
           inkscape:connector-curvature="0"
           style="fill:#ffffff;fill-opacity:1"
           d="m 424.77148,-1637.3711 c -0.17382,9.1988 -0.52085,33.2287 -0.88086,62.7051 l -0.75781,62 c -0.005,0.356 -0.0852,0.7069 -0.23633,1.0293 l -2.6875,5.7363 c -3.76306,8.0293 -11.75,16.0162 -19.77929,19.7793 l -5.73633,2.6875 c -0.32535,0.1525 -0.67975,0.2331 -1.03906,0.2363 l -60.12696,0.5 -59.33593,0.4942 c -8.16162,6.0273 -16.55371,12.0078 -24.875,17.8437 0.39568,0.4901 1.31234,2.1261 3.37304,4.666 2.48357,3.0612 4.51336,5.6598 6.54883,7.0704 7.68802,5.3278 8.90638,5.4257 66.35938,5.4257 h 53.14648 l 3.02734,2.25 c 1.6645,1.2375 13.94196,11.475 27.28516,22.75 13.3432,11.275 25.11882,20.6446 26.16797,20.8203 2.86952,0.4807 2.49765,-1.5482 -3.68945,-20.1113 -3.67266,-11.0191 -5.38828,-17.6309 -4.98828,-19.2246 1.08324,-4.3161 4.43272,-6.4821 10.02539,-6.4883 10.95716,-0.012 19.96683,-5.0621 24.97656,-13.9961 l 3.08398,-5.5 0.28125,-72.8847 c 0.31863,-82.5384 0.51672,-80.0626 -7.08203,-88.3457 -5.94967,-6.4855 -10.87888,-8.3906 -23.35547,-9.0274 z"
           transform="translate(254.86726,1844.1963)"
           id="path910" />
      </g>
    </g>
  </g>
</svg>
